# xmcd
#
# Track frame offsets: 
#        150
#        14919
#        28084
#        42047
#        55845
#        70255
#        83064
#        97647
#        111160
#        124861
#        138567
#        152272
#        164186
#        178043
#        191748
#        205827
#        219903
#        232550
#        247129
#        261831
#        276126
#        289341
#        302681
#        317374
#
# Disc length: 4399 seconds
#
# Revision: 1
# Processed by: cddbd v1.5.2PL0 Copyright (c) Steve Scherf et al.
# Submitted via: ExactAudioCopy v0.99pb4
#
DISCID=53112d18
DTITLE=John Lee Hooker - The Boogie Man [Disk 2 of 4] Huckle Up Baby
DYEAR=2006
DGENRE=Blues
TTITLE0=Don't Go Baby
TTITLE1=Devil's Jump
TTITLE2=I'm Gonna Kill That Woman
TTITLE3=Moaning Blues
TTITLE4=The Numbers
TTITLE5=Weeping Willow Boogie
TTITLE6=Forgive Me
TTITLE7=Sometime
TTITLE8=Heart Trouble Blues
TTITLE9=Slim's Stomp
TTITLE10=Morning Blues
TTITLE11=Boogie Awhile
TTITLE12=Tuesday Evening Blues
TTITLE13=Miss Lorraine
TTITLE14=Talkin' Boogie
TTITLE15=I Love To Boogie
TTITLE16=Graveyard Blues
TTITLE17=Do the Boogie
TTITLE18=609 Boogie
TTITLE19=Road Trouble
TTITLE20=No Friend Around (T. B.'s Killing Me)
TTITLE21=Wednesday Evening
TTITLE22=Playing the Races
TTITLE23=Huckle Up Baby
EXTD=upc =805520-015424\nrecorded 1949, 1950 in Detroit, MI, USA
EXTT0=
EXTT1=
EXTT2=
EXTT3=
EXTT4=
EXTT5=
EXTT6=
EXTT7=
EXTT8=
EXTT9=
EXTT10=
EXTT11=
EXTT12=
EXTT13=
EXTT14=
EXTT15=
EXTT16=
EXTT17=
EXTT18=
EXTT19=
EXTT20=
EXTT21=
EXTT22=
EXTT23=
PLAYORDER=
